<svg version="1.1" id="svg2268" xmlns="http://www.w3.org/2000/svg" xmlns:xlink="http://www.w3.org/1999/xlink" x="0px" y="0px" width="544.6px" height="544.2px" viewBox="0 0 544.6 544.2" style="enable-background:new 0 0 544.6 544.2;" xml:space="preserve">
							  <path class="iconPath" d="M81.2,107.5c-4.7,0-8.7,1.7-10.7,4.9c-2.1,3.4-1.7,7.7,0.4,12l53.1,91.9c0.1,0.2,0.1,0.3,0,0.4L40.6,363.9
								c-2.2,4.3-2.1,8.7,0,12c2,3.2,5.5,5.4,10.3,5.4h78.5c11.7,0,17.4-7.9,21.4-15.2c0,0,81.6-144.2,84.7-149.8c-0.3-0.5-54-94.1-54-94.1
								c-3.9-7-9.8-14.7-21.9-14.7H81.2z" style="fill:#006567"></path>
							  <path class="iconPath" d="M410.9,0c-11.7,0-16.8,7.4-21,14.9c0,0-169.1,299.8-174.6,309.7
								c0.3,0.5,111.5,204.6,111.5,204.6c3.9,7,9.9,14.9,21.9,14.9h78.4c4.7,0,8.4-1.8,10.4-5c2.1-3.4,2-7.8-0.2-12.1L326.7,324.9
								c-0.1-0.2-0.1-0.4,0-0.5L500.5,17.1c2.2-4.3,2.2-8.8,0.2-12.1c-2-3.2-5.7-5-10.4-5H410.9z" style="fill:#006567"></path>
							</svg>
